<svg xmlns="http://www.w3.org/2000/svg" viewBox="0 0 362.83 362.83"><defs><style>.cls-1{fill:#231f20;}.cls-2{fill:#ffa816;}</style></defs><g id="Layer_2" data-name="Layer 2"><g id="Layer_1-2" data-name="Layer 1"><circle class="cls-1" cx="181.42" cy="181.42" r="181.42"/><g id="Layer_2-2" data-name="Layer 2"><g id="Layer_1-2-2" data-name="Layer 1-2"><path class="cls-2" d="M52,266.94V88.08h76q25.62,0,38,12.5t12.32,38.25q0,16.39-6,27.33A31,31,0,0,1,155,181.09q10.22,4.13,14.52,12.62t5,26.48l.64,21.14v.73q.32,16,6.06,19.43V267H145.85a37.48,37.48,0,0,1-2.61-9.29,100.62,100.62,0,0,1-1.11-13.18l-.43-18.83q-.54-16.64-5.48-22.46t-17.82-5.83H84.26v69.57ZM84.26,166.28h37.87q12.35,0,18.14-5.71t5.8-18q0-11.65-5.64-17.67t-16.82-6H84.26Z"/><path class="cls-2" d="M207.53,266.94V88.08h32.23V233.92h76.47v33Z"/></g></g></g></g></svg>