<svg xmlns="http://www.w3.org/2000/svg" viewBox="0 0 1072.63 726.24"><defs><style>.cls-1{fill:#ffa816;stroke:#ffa816;stroke-miterlimit:10;stroke-width:7px;}</style></defs><g id="Layer_2" data-name="Layer 2"><g id="Layer_1-2" data-name="Layer 1"><path class="cls-1" d="M3.5,722.74V3.5H278.93q79.49,0,118.38,12.7a157,157,0,0,1,66.82,42.48Q489,86,501.51,123.62T514,209.55q0,66.42-24.92,107.67t-76.92,60.3q44.25,12.21,64,47.61t21.91,109.13l3,85.45v6.84q1.29,61,24.49,74.22v22H382.91a168.89,168.89,0,0,1-10.52-36.38q-3.66-20.25-4.51-53.47l-1.72-76.17Q364,489.34,344,466.15t-72-23.2H134.13V722.74Zm22.34-23h85.94V421H266q63.58,0,91.09,26.37t29.22,87.4l2.58,76.17c.28,2.93.43,7,.43,12.21q1.29,54.2,10.31,76.66h97.54A59.1,59.1,0,0,1,483,674.64q-4.3-14.88-5.15-54.93l-2.58-85.45q-1.73-69.33-23.42-102.78T372.6,376.55q62.73-23.93,90.67-62.5T491.2,213q0-97.16-46.84-141.6T294.83,26.94h-269ZM111.78,340.9V105.55H290.53q55,0,84.65,30.52t29.65,86.67q0,57.61-29.22,87.89T290.53,340.9ZM134.13,318H288.81q47.7,0,70.9-23.43t23.2-71.78q0-47.36-23.63-71.29t-70.47-23.93H134.13Z"/><path class="cls-1" d="M630.41,722.74V3.5h130.2V589.93h308.52V722.74Zm21.92-23h394V612.88H738.27V26.94H652.33Z"/></g></g></svg>